# xmcd
#
# Track frame offsets:
#	150
#	18620
#	32565
#	56747
#	68827
#	82760
#	97797
#	111617
#	129175
#	151667
#	161297
#	174372
#	194872
#	210885
#	224785
#	244590
#	259627
#	282235
#	298970
#
# Disc length: 4226 seconds
#
# Revision: 3
# Processed by: cddbd v1.5.1PL2 Copyright (c) Steve Scherf et al.
# Submitted via: dBpowerAMP V4.0
#
DISCID=0b108013
DTITLE=Various Artist - Living Chicago Blues Vol. 4
DYEAR=1980
DGENRE=Blues
TTITLE0=Detroit Junior - If I Hadn't Been High
TTITLE1=Detroit Junior - Some Nerve
TTITLE2=Detroit Junior - Sombody to Shack
TTITLE3=Detroit Junior - I Got Money
TTITLE4=Luther "Guitar Junior" Johnson - Somebody Have Mercy
TTITLE5=Luther "Guitar Junior" Johnson - Got to have Money
TTITLE6=Luther "Guitar Junior" Johnson - Just Like Mama Said
TTITLE7=Luther "Guitar Junior" Johnson - Look What You Done
TTITLE8=Queen Sylvia Embry - Going Upstairs
TTITLE9=Queen Sylvia Embry - Blues This Morning
TTITLE10=Queen Sylvia Embry - Tired of being Pushed Around
TTITLE11=Queen Sylvia Embry - Please Let Me Stay
TTITLE12=Big Leon Brooks - Blues for a Real Man
TTITLE13=Big Leon Brooks - Thirteen Years in Prison
TTITLE14=Big Leon Brooks - Country Boy
TTITLE15=Big Leon Brooks - My Life Ain't the Same
TTITLE16=Andrew Brown - I Got News for you
TTITLE17=Andrew Brown - Morning, Noon and Night
TTITLE18=Andrew Brown - Two Years
EXTD=
EXTT0=
EXTT1=
EXTT2=
EXTT3=
EXTT4=
EXTT5=
EXTT6=
EXTT7=
EXTT8=
EXTT9=
EXTT10=
EXTT11=
EXTT12=
EXTT13=
EXTT14=
EXTT15=
EXTT16=
EXTT17=
EXTT18=
PLAYORDER=
